<?xml version="1.0" encoding="UTF-8"?>
<svg xmlns="http://www.w3.org/2000/svg" xmlns:xlink="http://www.w3.org/1999/xlink" width="43px" height="41px" viewBox="0 0 43 41" version="1.1">
<defs>
<linearGradient id="linear0" gradientUnits="userSpaceOnUse" x1="24.3538" y1="4.73363" x2="44.1029" y2="36.1489" gradientTransform="matrix(0.409524,0,0,0.41,0,0)">
<stop offset="0.101123" style="stop-color:rgb(10.196078%,100%,78.431373%);stop-opacity:1;"/>
<stop offset="0.587155" style="stop-color:rgb(10.196078%,84.705882%,67.058824%);stop-opacity:1;"/>
<stop offset="0.979833" style="stop-color:rgb(9.803922%,72.156863%,57.254902%);stop-opacity:1;"/>
</linearGradient>
<linearGradient id="linear1" gradientUnits="userSpaceOnUse" x1="57.9173" y1="-2.29211" x2="77.8004" y2="29.9764" gradientTransform="matrix(0.409524,0,0,0.41,0,0)">
<stop offset="0.101123" style="stop-color:rgb(10.196078%,100%,78.431373%);stop-opacity:1;"/>
<stop offset="0.587155" style="stop-color:rgb(10.196078%,84.705882%,67.058824%);stop-opacity:1;"/>
<stop offset="0.979833" style="stop-color:rgb(9.803922%,72.156863%,57.254902%);stop-opacity:1;"/>
</linearGradient>
<linearGradient id="linear2" gradientUnits="userSpaceOnUse" x1="71.179" y1="33.8462" x2="78.7505" y2="61.4642" gradientTransform="matrix(0.409524,0,0,0.41,0,0)">
<stop offset="0.101123" style="stop-color:rgb(10.196078%,100%,78.431373%);stop-opacity:1;"/>
<stop offset="0.587155" style="stop-color:rgb(10.196078%,84.705882%,67.058824%);stop-opacity:1;"/>
<stop offset="0.979833" style="stop-color:rgb(9.803922%,72.156863%,57.254902%);stop-opacity:1;"/>
</linearGradient>
<linearGradient id="linear3" gradientUnits="userSpaceOnUse" x1="53.8747" y1="43.736" x2="81.1008" y2="70.0863" gradientTransform="matrix(0.409524,0,0,0.41,0,0)">
<stop offset="0.101123" style="stop-color:rgb(10.196078%,100%,78.431373%);stop-opacity:1;"/>
<stop offset="0.587155" style="stop-color:rgb(10.196078%,84.705882%,67.058824%);stop-opacity:1;"/>
<stop offset="0.979833" style="stop-color:rgb(9.803922%,72.156863%,57.254902%);stop-opacity:1;"/>
</linearGradient>
<linearGradient id="linear4" gradientUnits="userSpaceOnUse" x1="18.6845" y1="50.7381" x2="23.0181" y2="72.014" gradientTransform="matrix(0.409524,0,0,0.41,0,0)">
<stop offset="0.101123" style="stop-color:rgb(10.196078%,100%,78.431373%);stop-opacity:1;"/>
<stop offset="0.587155" style="stop-color:rgb(10.196078%,84.705882%,67.058824%);stop-opacity:1;"/>
<stop offset="0.979833" style="stop-color:rgb(9.803922%,72.156863%,57.254902%);stop-opacity:1;"/>
</linearGradient>
</defs>
<g id="surface1">
<path style=" stroke:none;fill-rule:evenodd;fill:rgb(100%,100%,100%);fill-opacity:1;" d="M 28.992188 20.960938 C 26.632812 19.113281 24.523438 18.679688 24.523438 18.679688 C 24.523438 18.679688 25.875 19.945312 27.355469 21.886719 C 28.835938 23.796875 29.9375 26.234375 29.9375 26.234375 L 32.769531 25.308594 C 32.738281 25.277344 31.007812 22.535156 28.992188 20.960938 Z M 28.992188 20.960938 "/>
<path style=" stroke:none;fill-rule:evenodd;fill:rgb(100%,100%,100%);fill-opacity:1;" d="M 22.160156 22.78125 C 22.160156 22.78125 21.308594 24.382812 19.832031 26.328125 C 18.351562 28.238281 16.304688 29.996094 16.304688 29.996094 L 18.035156 32.367188 C 18.035156 32.367188 20.238281 29.964844 21.214844 27.589844 C 22.347656 24.878906 22.160156 22.78125 22.160156 22.78125 Z M 22.160156 22.78125 "/>
<path style=" stroke:none;fill-rule:evenodd;fill:rgb(100%,100%,100%);fill-opacity:1;" d="M 13.570312 20.652344 C 11.207031 19.945312 8.847656 18.617188 8.847656 18.617188 L 7.117188 20.992188 C 7.117188 20.992188 10.167969 22.226562 12.78125 22.347656 C 15.804688 22.472656 17.789062 21.640625 17.789062 21.640625 C 17.789062 21.640625 15.929688 21.394531 13.570312 20.652344 Z M 13.570312 20.652344 "/>
<path style=" stroke:none;fill-rule:evenodd;fill:rgb(100%,100%,100%);fill-opacity:1;" d="M 17.535156 7.800781 L 14.734375 6.9375 C 14.734375 6.9375 14.480469 10.113281 15.175781 12.546875 C 15.960938 15.351562 17.410156 16.925781 17.410156 16.925781 C 17.410156 16.925781 17.09375 15.167969 17.03125 12.761719 C 17 10.390625 17.535156 7.800781 17.535156 7.800781 Z M 17.535156 7.800781 "/>
<path style=" stroke:none;fill-rule:evenodd;fill:rgb(100%,100%,100%);fill-opacity:1;" d="M 25.214844 11.992188 C 22.632812 13.53125 21.46875 15.289062 21.46875 15.289062 C 21.46875 15.289062 23.136719 14.488281 25.53125 13.777344 C 27.890625 13.070312 30.597656 12.855469 30.597656 12.855469 L 30.691406 10.019531 C 30.660156 9.988281 27.449219 10.664062 25.214844 11.992188 Z M 25.214844 11.992188 "/>
<path style=" stroke:none;fill-rule:evenodd;fill:url(#linear0);" d="M 13.253906 12.023438 C 12.027344 8.507812 12.5625 4.253906 12.5625 4.253906 L 5.226562 2.867188 C 5.226562 2.867188 4.15625 10.574219 7.589844 14.765625 C 11.585938 19.636719 18.890625 20.5 18.890625 20.5 C 18.890625 20.5 15.488281 18.402344 13.253906 12.023438 Z M 13.253906 12.023438 "/>
<path style=" stroke:none;fill-rule:evenodd;fill:url(#linear1);" d="M 32.109375 0 C 32.109375 0 24.238281 1.292969 21.121094 5.734375 C 17.535156 10.851562 18.886719 17.910156 18.886719 17.910156 C 18.886719 17.910156 19.925781 14.148438 25.527344 10.140625 C 28.613281 7.953125 32.957031 7.183594 32.957031 7.183594 Z M 32.109375 0 "/>
<path style=" stroke:none;fill-rule:evenodd;fill:url(#linear2);" d="M 34.121094 15.042969 C 28.015625 13.226562 21.53125 16.585938 21.53125 16.585938 C 21.53125 16.585938 25.527344 16.429688 31.101562 20.4375 C 34.1875 22.628906 36.230469 26.449219 36.230469 26.449219 L 43 23.519531 C 43.03125 23.550781 39.378906 16.617188 34.121094 15.042969 Z M 34.121094 15.042969 "/>
<path style=" stroke:none;fill-rule:evenodd;fill:url(#linear3);" d="M 23.453125 19.082031 C 23.453125 19.082031 24.839844 22.71875 22.636719 29.101562 C 21.4375 32.613281 18.355469 35.667969 18.355469 35.667969 L 23.234375 41 C 23.234375 41 28.867188 35.511719 28.804688 30.210938 C 28.710938 24.015625 23.453125 19.082031 23.453125 19.082031 Z M 23.453125 19.082031 "/>
<path style=" stroke:none;fill-rule:evenodd;fill:url(#linear4);" d="M 11.488281 23.613281 C 7.679688 23.550781 3.714844 21.609375 3.714844 21.609375 L 0 27.835938 C 0 27.835938 7.113281 31.441406 12.308594 29.71875 C 18.351562 27.714844 21.5625 21.269531 21.5625 21.269531 C 21.5625 21.269531 18.414062 23.707031 11.488281 23.613281 Z M 11.488281 23.613281 "/>
</g>
</svg>
